<svg width="390" height="844" viewBox="0 0 390 844" fill="none" xmlns="http://www.w3.org/2000/svg">
  <!-- Background (flutter_svg friendly: no scripts, filters, or embedded images). -->
  <rect width="390" height="844" fill="#EAF3DE" />

  <!-- Top curve -->
  <path d="M-40 260 Q 136.5 150 430 205" fill="none" stroke="#97C459" stroke-width="2" />

  <!-- Bottom curve -->
  <path d="M-20 709 Q 234 584 450 644" fill="none" stroke="#97C459" stroke-width="2" />

  <!-- Decorative leaves (top/left) -->
  <path
    d="M59.0883 205.911C55.5497 208.235 49.7322 205.627 46.0947 200.087C42.4571 194.547 42.3769 188.173 45.9155 185.849C49.4541 183.526 55.2716 186.133 58.9092 191.673C62.5467 197.213 62.6269 203.588 59.0883 205.911Z"
    fill="#97C459"
  />
  <path
    d="M55.1336 205.125C54.0895 207.965 49.4548 208.876 44.7816 207.158C40.1084 205.441 37.1664 201.745 38.2105 198.905C39.2546 196.064 43.8893 195.153 48.5625 196.871C53.2357 198.589 56.1777 202.284 55.1336 205.125Z"
    fill="#3B6D11"
  />

  <!-- Decorative leaves (bottom/right) -->
  <path
    d="M275.699 585.545C272.161 587.868 266.343 585.261 262.706 579.721C259.068 574.181 258.988 567.806 262.526 565.483C266.065 563.159 271.882 565.767 275.52 571.307C279.158 576.847 279.238 583.221 275.699 585.545Z"
    fill="#97C459"
  />
  <path
    d="M271.744 584.758C270.7 587.599 266.066 588.509 261.392 586.792C256.719 585.074 253.777 581.379 254.821 578.538C255.865 575.698 260.5 574.787 265.173 576.505C269.847 578.222 272.789 581.917 271.744 584.758Z"
    fill="#3B6D11"
  />
</svg>
